<?xml version="1.0" standalone="no"?>
<!DOCTYPE svg PUBLIC "-//W3C//DTD SVG 20010904//EN"
 "http://www.w3.org/TR/2001/REC-SVG-20010904/DTD/svg10.dtd">
<svg version="1.0" xmlns="http://www.w3.org/2000/svg"
 width="512.000000pt" height="512.000000pt" viewBox="0 0 512.000000 512.000000"
 preserveAspectRatio="xMidYMid meet">

<g transform="translate(0.000000,512.000000) scale(0.100000,-0.100000)"
fill="#000000" stroke="none">
<path d="M2148 4674 c-88 -21 -190 -78 -262 -145 -77 -72 -83 -80 -206 -308
l-96 -176 -304 -5 c-258 -4 -310 -8 -335 -21 -118 -65 -121 -222 -7 -287 l40
-22 1582 0 1582 0 40 22 c88 50 110 162 47 242 -46 59 -57 61 -389 66 l-304 5
-96 176 c-123 228 -128 236 -208 310 -76 71 -167 121 -263 144 -88 20 -735 20
-821 -1z m794 -337 c32 -16 71 -44 87 -63 24 -30 131 -217 131 -230 0 -2 -270
-4 -600 -4 -330 0 -600 2 -600 4 0 11 102 192 125 222 33 44 102 83 162 94 27
5 181 8 343 7 l295 -2 57 -28z"/>
<path d="M1170 3358 c-30 -16 -51 -36 -66 -64 -20 -40 -21 -58 -28 -475 -7
-465 4 -968 29 -1319 43 -601 52 -656 125 -781 75 -127 228 -240 371 -274 96
-22 1822 -22 1918 0 143 34 296 147 371 274 52 88 77 181 90 326 55 627 76
1257 63 1845 -8 366 -9 376 -31 412 -31 50 -98 82 -159 75 -51 -5 -87 -29
-122 -78 l-23 -34 6 -435 c9 -634 -11 -1188 -64 -1765 -16 -166 -57 -237 -170
-289 -45 -21 -53 -21 -920 -21 -970 0 -902 -4 -990 65 -60 48 -88 115 -100
245 -53 578 -73 1137 -64 1765 l6 435 -23 34 c-55 79 -138 101 -219 59z"/>
</g>
</svg>
